<svg xmlns="http://www.w3.org/2000/svg" xmlns:xlink="http://www.w3.org/1999/xlink" width="200" zoomAndPan="magnify" viewBox="0 0 150 149.999998" height="200" preserveAspectRatio="xMidYMid meet" version="1.0"><defs><clipPath id="266bc0511a"><path d="M 13.859375 32 L 136.109375 32 L 136.109375 114 L 13.859375 114 Z M 13.859375 32 " clip-rule="nonzero"/></clipPath><clipPath id="a55156225a"><path d="M 62 111 L 88 111 L 88 130.539062 L 62 130.539062 Z M 62 111 " clip-rule="nonzero"/></clipPath><clipPath id="cfd073dfc2"><path d="M 56 127 L 94 127 L 94 130.539062 L 56 130.539062 Z M 56 127 " clip-rule="nonzero"/></clipPath><clipPath id="ac2d7f7204"><path d="M 66 19.539062 L 128 19.539062 L 128 48 L 66 48 Z M 66 19.539062 " clip-rule="nonzero"/></clipPath></defs><g clip-path="url(#266bc0511a)"><path fill="#000000" d="M 126.140625 113.902344 L 23.828125 113.902344 C 18.328125 113.902344 13.859375 109.425781 13.859375 103.925781 L 13.859375 42.335938 C 13.859375 36.835938 18.328125 32.359375 23.828125 32.359375 L 67.46875 32.359375 C 68.234375 32.359375 68.851562 32.980469 68.851562 33.742188 C 68.851562 34.507812 68.234375 35.128906 67.46875 35.128906 L 23.828125 35.128906 C 19.855469 35.128906 16.625 38.363281 16.625 42.335938 L 16.625 103.925781 C 16.625 107.898438 19.855469 111.132812 23.828125 111.132812 L 126.140625 111.132812 C 130.109375 111.132812 133.34375 107.898438 133.34375 103.925781 L 133.34375 42.335938 C 133.34375 38.363281 130.109375 35.128906 126.140625 35.128906 C 125.375 35.128906 124.757812 34.507812 124.757812 33.742188 C 124.757812 32.980469 125.375 32.359375 126.140625 32.359375 C 131.636719 32.359375 136.109375 36.835938 136.109375 42.335938 L 136.109375 103.925781 C 136.109375 109.425781 131.636719 113.902344 126.140625 113.902344 Z M 126.140625 113.902344 " fill-opacity="1" fill-rule="nonzero"/></g><g clip-path="url(#a55156225a)"><path fill="#000000" d="M 64.105469 130.519531 C 63.890625 130.519531 63.667969 130.464844 63.464844 130.359375 C 62.789062 130.003906 62.527344 129.164062 62.882812 128.488281 C 65.5625 123.390625 65.558594 118.511719 62.871094 113.136719 C 62.527344 112.453125 62.804688 111.621094 63.488281 111.28125 C 64.171875 110.9375 65.003906 111.214844 65.34375 111.898438 C 68.421875 118.054688 68.417969 123.902344 65.332031 129.777344 C 65.085938 130.25 64.605469 130.519531 64.105469 130.519531 Z M 85.859375 130.519531 C 85.363281 130.519531 84.882812 130.25 84.632812 129.777344 C 81.550781 123.902344 81.542969 118.054688 84.621094 111.898438 C 84.960938 111.214844 85.792969 110.9375 86.476562 111.28125 C 87.160156 111.621094 87.4375 112.453125 87.09375 113.136719 C 84.410156 118.511719 84.40625 123.390625 87.082031 128.488281 C 87.4375 129.164062 87.175781 130.003906 86.5 130.359375 C 86.296875 130.464844 86.074219 130.519531 85.859375 130.519531 Z M 85.859375 130.519531 " fill-opacity="1" fill-rule="nonzero"/></g><g clip-path="url(#cfd073dfc2)"><path fill="#000000" d="M 92.441406 130.515625 L 57.527344 130.515625 C 56.761719 130.515625 56.140625 129.898438 56.140625 129.132812 C 56.140625 128.367188 56.761719 127.75 57.527344 127.75 L 92.441406 127.75 C 93.203125 127.75 93.824219 128.367188 93.824219 129.132812 C 93.824219 129.898438 93.203125 130.515625 92.441406 130.515625 Z M 92.441406 130.515625 " fill-opacity="1" fill-rule="nonzero"/></g><g clip-path="url(#ac2d7f7204)"><path fill="#000000" d="M 96.804688 47.925781 C 79.582031 47.925781 66.085938 41.695312 66.085938 33.742188 C 66.085938 25.789062 79.582031 19.558594 96.804688 19.558594 C 114.027344 19.558594 127.523438 25.789062 127.523438 33.742188 C 127.523438 41.695312 114.03125 47.925781 96.804688 47.925781 Z M 96.804688 22.328125 C 89.175781 22.328125 82.011719 23.621094 76.632812 25.96875 C 71.6875 28.125 68.851562 30.960938 68.851562 33.742188 C 68.851562 36.527344 71.6875 39.359375 76.632812 41.515625 C 82.011719 43.863281 89.175781 45.15625 96.804688 45.15625 C 104.433594 45.15625 111.597656 43.863281 116.976562 41.515625 C 121.921875 39.359375 124.757812 36.527344 124.757812 33.742188 C 124.757812 30.960938 121.921875 28.125 116.976562 25.96875 C 111.597656 23.621094 104.433594 22.328125 96.804688 22.328125 Z M 96.804688 22.328125 " fill-opacity="1" fill-rule="nonzero"/></g><path fill="#000000" d="M 96.804688 63.585938 C 79.582031 63.585938 66.085938 57.355469 66.085938 49.402344 C 66.085938 48.636719 66.707031 48.019531 67.46875 48.019531 C 68.234375 48.019531 68.851562 48.636719 68.851562 49.402344 C 68.851562 54.914062 80.085938 60.816406 96.804688 60.816406 C 113.523438 60.816406 124.757812 54.914062 124.757812 49.402344 C 124.757812 48.636719 125.375 48.019531 126.140625 48.019531 C 126.902344 48.019531 127.523438 48.636719 127.523438 49.402344 C 127.523438 57.355469 114.03125 63.585938 96.804688 63.585938 Z M 96.804688 63.585938 " fill-opacity="1" fill-rule="nonzero"/><path fill="#000000" d="M 96.804688 79.246094 C 79.582031 79.246094 66.085938 73.015625 66.085938 65.0625 C 66.085938 64.296875 66.707031 63.679688 67.46875 63.679688 C 68.234375 63.679688 68.851562 64.296875 68.851562 65.0625 C 68.851562 70.574219 80.085938 76.476562 96.804688 76.476562 C 113.523438 76.476562 124.757812 70.574219 124.757812 65.0625 C 124.757812 64.296875 125.375 63.679688 126.140625 63.679688 C 126.902344 63.679688 127.523438 64.296875 127.523438 65.0625 C 127.523438 73.015625 114.03125 79.246094 96.804688 79.246094 Z M 96.804688 79.246094 " fill-opacity="1" fill-rule="nonzero"/><path fill="#000000" d="M 67.46875 66.445312 C 66.707031 66.445312 66.085938 65.828125 66.085938 65.0625 L 66.085938 33.742188 C 66.085938 32.980469 66.707031 32.359375 67.46875 32.359375 C 68.234375 32.359375 68.851562 32.980469 68.851562 33.742188 L 68.851562 65.0625 C 68.851562 65.828125 68.234375 66.445312 67.46875 66.445312 Z M 67.46875 66.445312 " fill-opacity="1" fill-rule="nonzero"/><path fill="#000000" d="M 126.140625 66.445312 C 125.375 66.445312 124.757812 65.828125 124.757812 65.0625 L 124.757812 33.742188 C 124.757812 32.980469 125.375 32.359375 126.140625 32.359375 C 126.902344 32.359375 127.523438 32.980469 127.523438 33.742188 L 127.523438 65.0625 C 127.523438 65.828125 126.902344 66.445312 126.140625 66.445312 Z M 126.140625 66.445312 " fill-opacity="1" fill-rule="nonzero"/><path fill="#000000" d="M 35.042969 76.757812 C 34.734375 76.757812 34.425781 76.65625 34.167969 76.445312 L 24.519531 68.542969 C 24.199219 68.28125 24.015625 67.886719 24.015625 67.472656 C 24.015625 67.054688 24.199219 66.664062 24.519531 66.398438 L 34.167969 58.496094 C 34.757812 58.015625 35.628906 58.101562 36.113281 58.691406 C 36.597656 59.285156 36.511719 60.15625 35.917969 60.640625 L 27.582031 67.472656 L 35.917969 74.300781 C 36.511719 74.785156 36.597656 75.65625 36.113281 76.25 C 35.839844 76.585938 35.445312 76.757812 35.042969 76.757812 Z M 35.042969 76.757812 " fill-opacity="1" fill-rule="nonzero"/><path fill="#000000" d="M 52.472656 76.757812 C 52.074219 76.757812 51.675781 76.585938 51.402344 76.25 C 50.917969 75.65625 51.003906 74.785156 51.597656 74.300781 L 59.9375 67.472656 L 51.597656 60.640625 C 51.003906 60.15625 50.917969 59.285156 51.402344 58.691406 C 51.886719 58.101562 52.757812 58.015625 53.347656 58.5 L 62.996094 66.398438 C 63.316406 66.664062 63.5 67.054688 63.5 67.472656 C 63.5 67.886719 63.316406 68.28125 62.996094 68.542969 L 53.347656 76.445312 C 53.089844 76.65625 52.78125 76.757812 52.472656 76.757812 Z M 52.472656 76.757812 " fill-opacity="1" fill-rule="nonzero"/><path fill="#000000" d="M 41.296875 78.0625 C 41.175781 78.0625 41.054688 78.046875 40.9375 78.011719 C 40.199219 77.816406 39.761719 77.054688 39.957031 76.316406 L 44.886719 57.90625 C 45.085938 57.167969 45.84375 56.730469 46.582031 56.929688 C 47.316406 57.128906 47.757812 57.886719 47.558594 58.625 L 42.628906 77.035156 C 42.464844 77.652344 41.90625 78.0625 41.296875 78.0625 Z M 41.296875 78.0625 " fill-opacity="1" fill-rule="nonzero"/><path fill="#000000" d="M 48.503906 90.167969 L 25.996094 90.167969 C 25.230469 90.167969 24.613281 89.546875 24.613281 88.785156 C 24.613281 88.019531 25.230469 87.398438 25.996094 87.398438 L 48.503906 87.398438 C 49.269531 87.398438 49.886719 88.019531 49.886719 88.785156 C 49.886719 89.546875 49.269531 90.167969 48.503906 90.167969 Z M 48.503906 90.167969 " fill-opacity="1" fill-rule="nonzero"/><path fill="#000000" d="M 64.617188 90.167969 L 56.433594 90.167969 C 55.667969 90.167969 55.050781 89.546875 55.050781 88.785156 C 55.050781 88.019531 55.667969 87.398438 56.433594 87.398438 L 64.617188 87.398438 C 65.382812 87.398438 66 88.019531 66 88.785156 C 66 89.546875 65.382812 90.167969 64.617188 90.167969 Z M 64.617188 90.167969 " fill-opacity="1" fill-rule="nonzero"/><path fill="#000000" d="M 87.894531 90.167969 L 79.710938 90.167969 C 78.945312 90.167969 78.328125 89.546875 78.328125 88.785156 C 78.328125 88.019531 78.945312 87.398438 79.710938 87.398438 L 87.894531 87.398438 C 88.660156 87.398438 89.277344 88.019531 89.277344 88.785156 C 89.277344 89.546875 88.660156 90.167969 87.894531 90.167969 Z M 87.894531 90.167969 " fill-opacity="1" fill-rule="nonzero"/><path fill="#000000" d="M 124.472656 90.167969 L 95.824219 90.167969 C 95.0625 90.167969 94.441406 89.546875 94.441406 88.785156 C 94.441406 88.019531 95.0625 87.398438 95.824219 87.398438 L 124.472656 87.398438 C 125.238281 87.398438 125.855469 88.019531 125.855469 88.785156 C 125.855469 89.546875 125.238281 90.167969 124.472656 90.167969 Z M 124.472656 90.167969 " fill-opacity="1" fill-rule="nonzero"/><path fill="#000000" d="M 42.140625 100.34375 L 25.996094 100.34375 C 25.230469 100.34375 24.613281 99.722656 24.613281 98.957031 C 24.613281 98.191406 25.230469 97.574219 25.996094 97.574219 L 42.140625 97.574219 C 42.90625 97.574219 43.523438 98.191406 43.523438 98.957031 C 43.523438 99.722656 42.90625 100.34375 42.140625 100.34375 Z M 42.140625 100.34375 " fill-opacity="1" fill-rule="nonzero"/><path fill="#000000" d="M 90.234375 100.34375 L 50.734375 100.34375 C 49.96875 100.34375 49.351562 99.722656 49.351562 98.957031 C 49.351562 98.191406 49.96875 97.574219 50.734375 97.574219 L 90.234375 97.574219 C 90.996094 97.574219 91.617188 98.191406 91.617188 98.957031 C 91.617188 99.722656 90.996094 100.34375 90.234375 100.34375 Z M 90.234375 100.34375 " fill-opacity="1" fill-rule="nonzero"/><path fill="#000000" d="M 107.695312 100.34375 L 100.558594 100.34375 C 99.792969 100.34375 99.175781 99.722656 99.175781 98.957031 C 99.175781 98.191406 99.792969 97.574219 100.558594 97.574219 L 107.695312 97.574219 C 108.457031 97.574219 109.078125 98.191406 109.078125 98.957031 C 109.078125 99.722656 108.457031 100.34375 107.695312 100.34375 Z M 107.695312 100.34375 " fill-opacity="1" fill-rule="nonzero"/><path fill="#000000" d="M 124.570312 100.34375 L 117.429688 100.34375 C 116.667969 100.34375 116.046875 99.722656 116.046875 98.957031 C 116.046875 98.191406 116.667969 97.574219 117.429688 97.574219 L 124.570312 97.574219 C 125.332031 97.574219 125.953125 98.191406 125.953125 98.957031 C 125.953125 99.722656 125.332031 100.34375 124.570312 100.34375 Z M 124.570312 100.34375 " fill-opacity="1" fill-rule="nonzero"/><path fill="#000000" d="M 58.695312 48.6875 L 42.910156 48.6875 C 42.144531 48.6875 41.523438 48.070312 41.523438 47.304688 C 41.523438 46.539062 42.144531 45.921875 42.910156 45.921875 L 58.695312 45.921875 C 59.457031 45.921875 60.078125 46.539062 60.078125 47.304688 C 60.078125 48.070312 59.457031 48.6875 58.695312 48.6875 Z M 58.695312 48.6875 " fill-opacity="1" fill-rule="nonzero"/><path fill="#000000" d="M 34.3125 48.6875 L 25.996094 48.6875 C 25.230469 48.6875 24.613281 48.070312 24.613281 47.304688 C 24.613281 46.539062 25.230469 45.921875 25.996094 45.921875 L 34.308594 45.921875 C 35.074219 45.921875 35.691406 46.539062 35.691406 47.304688 C 35.691406 48.070312 35.074219 48.6875 34.3125 48.6875 Z M 34.3125 48.6875 " fill-opacity="1" fill-rule="nonzero"/></svg>