<svg xmlns="http://www.w3.org/2000/svg" xmlns:xlink="http://www.w3.org/1999/xlink" width="200" zoomAndPan="magnify" viewBox="0 0 150 149.999998" height="200" preserveAspectRatio="xMidYMid meet" version="1.0"><defs><clipPath id="8556228935"><path d="M 11.820312 27 L 137.820312 27 L 137.820312 122 L 11.820312 122 Z M 11.820312 27 " clip-rule="nonzero"/></clipPath><clipPath id="ef59d8d82a"><path d="M 11.820312 106 L 137.820312 106 L 137.820312 112 L 11.820312 112 Z M 11.820312 106 " clip-rule="nonzero"/></clipPath><clipPath id="333d15ef59"><path d="M 48 132 L 101 132 L 101 137.820312 L 48 137.820312 Z M 48 132 " clip-rule="nonzero"/></clipPath><clipPath id="50107d767f"><path d="M 53 116 L 65 116 L 65 137.820312 L 53 137.820312 Z M 53 116 " clip-rule="nonzero"/></clipPath><clipPath id="652e70bb0f"><path d="M 85 116 L 96 116 L 96 137.820312 L 85 137.820312 Z M 85 116 " clip-rule="nonzero"/></clipPath></defs><g clip-path="url(#8556228935)"><path fill="#000000" d="M 132.410156 116.53125 L 17.230469 116.53125 L 17.230469 32.761719 L 84.40625 32.761719 C 85.851562 32.761719 87.023438 31.589844 87.023438 30.144531 C 87.023438 28.699219 85.851562 27.527344 84.40625 27.527344 L 14.613281 27.527344 C 13.167969 27.527344 11.996094 28.699219 11.996094 30.144531 L 11.996094 119.148438 C 11.996094 120.59375 13.167969 121.765625 14.613281 121.765625 L 135.027344 121.765625 C 136.472656 121.765625 137.644531 120.59375 137.644531 119.148438 L 137.644531 30.144531 C 137.644531 28.699219 136.472656 27.527344 135.027344 27.527344 C 133.582031 27.527344 132.410156 28.699219 132.410156 30.144531 Z M 132.410156 116.53125 " fill-opacity="1" fill-rule="nonzero"/></g><g clip-path="url(#ef59d8d82a)"><path fill="#000000" d="M 14.613281 111.292969 L 135.027344 111.292969 C 136.472656 111.292969 137.644531 110.121094 137.644531 108.675781 C 137.644531 107.230469 136.472656 106.058594 135.027344 106.058594 L 14.613281 106.058594 C 13.167969 106.058594 11.996094 107.230469 11.996094 108.675781 C 11.996094 110.121094 13.167969 111.292969 14.613281 111.292969 Z M 14.613281 111.292969 " fill-opacity="1" fill-rule="nonzero"/></g><g clip-path="url(#333d15ef59)"><path fill="#000000" d="M 51.261719 137.472656 L 98.378906 137.472656 C 99.824219 137.472656 100.996094 136.300781 100.996094 134.855469 C 100.996094 133.410156 99.824219 132.234375 98.378906 132.234375 L 51.261719 132.234375 C 49.816406 132.234375 48.644531 133.410156 48.644531 134.855469 C 48.644531 136.300781 49.816406 137.472656 51.261719 137.472656 Z M 51.261719 137.472656 " fill-opacity="1" fill-rule="nonzero"/></g><g clip-path="url(#50107d767f)"><path fill="#000000" d="M 58.976562 135.6875 L 64.214844 119.980469 C 64.675781 118.601562 63.925781 117.117188 62.5625 116.667969 C 61.1875 116.203125 59.699219 116.953125 59.25 118.316406 L 54.015625 134.023438 C 53.550781 135.398438 54.300781 136.886719 55.664062 137.335938 C 57.042969 137.800781 58.527344 137.050781 58.976562 135.6875 Z M 58.976562 135.6875 " fill-opacity="1" fill-rule="nonzero"/></g><g clip-path="url(#652e70bb0f)"><path fill="#000000" d="M 90.664062 135.6875 L 85.429688 119.980469 C 84.964844 118.601562 85.714844 117.117188 87.078125 116.667969 C 88.453125 116.203125 89.941406 116.953125 90.390625 118.316406 L 95.625 134.023438 C 96.089844 135.398438 95.339844 136.886719 93.976562 137.335938 C 92.597656 137.800781 91.113281 137.050781 90.664062 135.6875 Z M 90.664062 135.6875 " fill-opacity="1" fill-rule="nonzero"/></g><path fill="#000000" d="M 123.929688 35.3125 L 70.363281 82.347656 C 69.859375 82.785156 67.472656 79.417969 64.8125 76.800781 C 61.921875 73.949219 58.785156 71.796875 59.265625 71.25 L 106.300781 17.683594 C 111.15625 12.214844 119.320312 11.96875 124.476562 17.136719 C 129.65625 22.304688 129.398438 30.457031 123.929688 35.3125 Z M 120.78125 20.832031 C 117.742188 17.804688 113.078125 17.941406 110.226562 21.144531 L 64.8125 72.859375 L 68.753906 76.800781 L 120.453125 31.398438 C 123.671875 28.535156 123.820312 23.875 120.78125 20.832031 Z M 120.78125 20.832031 " fill-opacity="1" fill-rule="nonzero"/><path fill="#000000" d="M 36.796875 95.082031 C 35.226562 93.816406 35.621094 91.320312 37.503906 90.597656 C 40.871094 89.316406 42.628906 86.929688 45.003906 81.449219 C 47.128906 76.542969 47.714844 75.394531 49.378906 73.71875 C 54.492188 68.605469 62.78125 68.605469 67.894531 73.71875 C 73.007812 78.832031 73.007812 87.121094 67.894531 92.234375 C 61.007812 99.105469 45.765625 102.28125 36.796875 95.082031 Z M 64.1875 88.527344 C 67.253906 85.457031 67.253906 80.496094 64.1875 77.425781 C 61.117188 74.359375 56.15625 74.359375 53.089844 77.425781 C 52.105469 78.410156 51.589844 79.40625 49.816406 83.523438 C 47.894531 87.964844 46.160156 90.925781 43.722656 92.984375 C 50.511719 95.371094 59.863281 92.859375 64.1875 88.527344 Z M 64.1875 88.527344 " fill-opacity="1" fill-rule="nonzero"/><path fill="#000000" d="M 70.15625 63.890625 L 77.710938 71.402344 C 78.734375 72.421875 80.382812 72.421875 81.40625 71.402344 C 82.429688 70.378906 82.429688 68.714844 81.40625 67.691406 L 73.851562 60.179688 C 72.832031 59.15625 71.167969 59.171875 70.144531 60.195312 C 69.121094 61.214844 69.136719 62.867188 70.15625 63.890625 Z M 70.15625 63.890625 " fill-opacity="1" fill-rule="nonzero"/></svg>