<svg xmlns="http://www.w3.org/2000/svg" xmlns:xlink="http://www.w3.org/1999/xlink" width="200" zoomAndPan="magnify" viewBox="0 0 150 149.999998" height="200" preserveAspectRatio="xMidYMid meet" version="1.0"><defs><clipPath id="a810289a88"><path d="M 2.9375 7.5 L 146.9375 7.5 L 146.9375 116 L 2.9375 116 Z M 2.9375 7.5 " clip-rule="nonzero"/></clipPath><clipPath id="7a72d50889"><path d="M 2.9375 88 L 146.9375 88 L 146.9375 92 L 2.9375 92 Z M 2.9375 88 " clip-rule="nonzero"/></clipPath><clipPath id="8f8e5f806b"><path d="M 32 127 L 118 127 L 118 142.5 L 32 142.5 Z M 32 127 " clip-rule="nonzero"/></clipPath></defs><path fill="#000000" d="M 72.890625 72.148438 C 72.699219 72.148438 72.511719 72.117188 72.324219 72.050781 C 71.480469 71.734375 71.050781 70.796875 71.363281 69.953125 L 86.734375 28.460938 C 87.046875 27.617188 87.980469 27.1875 88.828125 27.5 C 89.671875 27.8125 90.101562 28.753906 89.789062 29.597656 L 74.417969 71.085938 C 74.175781 71.742188 73.554688 72.148438 72.890625 72.148438 Z M 72.890625 72.148438 " fill-opacity="1" fill-rule="nonzero"/><path fill="#000000" d="M 36.335938 64.414062 C 31.027344 64.414062 26.710938 60.316406 26.710938 55.285156 L 26.710938 36.957031 C 26.710938 36.054688 27.441406 35.324219 28.339844 35.324219 C 29.242188 35.324219 29.96875 36.054688 29.96875 36.957031 L 29.96875 55.285156 C 29.96875 58.519531 32.824219 61.152344 36.335938 61.152344 C 39.847656 61.152344 42.703125 58.519531 42.703125 55.285156 L 42.703125 36.957031 C 42.703125 36.054688 43.433594 35.324219 44.332031 35.324219 C 45.230469 35.324219 45.960938 36.054688 45.960938 36.957031 L 45.960938 55.285156 C 45.960938 60.316406 41.644531 64.414062 36.335938 64.414062 Z M 36.335938 64.414062 " fill-opacity="1" fill-rule="nonzero"/><path fill="#000000" d="M 52.054688 64.414062 C 51.796875 64.414062 51.53125 64.351562 51.285156 64.21875 C 50.492188 63.789062 50.195312 62.800781 50.621094 62.011719 L 64.625 35.996094 C 65.050781 35.203125 66.039062 34.90625 66.832031 35.335938 C 67.621094 35.761719 67.917969 36.75 67.492188 37.542969 L 53.488281 63.554688 C 53.199219 64.101562 52.636719 64.414062 52.054688 64.414062 Z M 52.054688 64.414062 " fill-opacity="1" fill-rule="nonzero"/><path fill="#000000" d="M 66.0625 64.414062 C 65.480469 64.414062 64.921875 64.101562 64.625 63.554688 L 50.621094 37.542969 C 50.195312 36.75 50.492188 35.761719 51.285156 35.335938 C 52.074219 34.90625 53.0625 35.203125 53.488281 35.996094 L 67.492188 62.011719 C 67.917969 62.800781 67.621094 63.789062 66.832031 64.21875 C 66.585938 64.347656 66.320312 64.414062 66.0625 64.414062 Z M 66.0625 64.414062 " fill-opacity="1" fill-rule="nonzero"/><path fill="#000000" d="M 103.085938 64.414062 C 97.78125 64.414062 93.464844 60.316406 93.464844 55.285156 L 93.464844 36.957031 C 93.464844 36.054688 94.195312 35.324219 95.09375 35.324219 C 95.992188 35.324219 96.722656 36.054688 96.722656 36.957031 L 96.722656 55.285156 C 96.722656 58.519531 99.574219 61.152344 103.085938 61.152344 C 106.601562 61.152344 109.453125 58.519531 109.453125 55.285156 L 109.453125 36.957031 C 109.453125 36.054688 110.183594 35.324219 111.082031 35.324219 C 111.980469 35.324219 112.710938 36.054688 112.710938 36.957031 L 112.710938 55.285156 C 112.707031 60.316406 108.390625 64.414062 103.085938 64.414062 Z M 103.085938 64.414062 " fill-opacity="1" fill-rule="nonzero"/><path fill="#000000" d="M 121.5 66.179688 C 120.601562 66.179688 119.871094 65.449219 119.871094 64.550781 L 119.863281 35.003906 C 119.863281 34.101562 120.59375 33.371094 121.492188 33.371094 C 122.390625 33.371094 123.121094 34.101562 123.121094 35.003906 L 123.128906 64.550781 C 123.132812 65.449219 122.402344 66.175781 121.5 66.179688 C 121.503906 66.179688 121.5 66.179688 121.5 66.179688 Z M 121.5 66.179688 " fill-opacity="1" fill-rule="nonzero"/><path fill="#000000" d="M 59.210938 107.652344 C 56.238281 107.652344 53.820312 105.230469 53.820312 102.257812 C 53.820312 99.285156 56.238281 96.867188 59.210938 96.867188 C 62.179688 96.867188 64.597656 99.285156 64.597656 102.257812 C 64.597656 105.230469 62.179688 107.652344 59.210938 107.652344 Z M 59.210938 100.125 C 58.035156 100.125 57.078125 101.082031 57.078125 102.257812 C 57.078125 103.433594 58.035156 104.390625 59.210938 104.390625 C 60.386719 104.390625 61.339844 103.433594 61.339844 102.257812 C 61.339844 101.082031 60.386719 100.125 59.210938 100.125 Z M 59.210938 100.125 " fill-opacity="1" fill-rule="nonzero"/><path fill="#000000" d="M 74.921875 107.652344 C 71.953125 107.652344 69.535156 105.230469 69.535156 102.257812 C 69.535156 99.285156 71.953125 96.867188 74.921875 96.867188 C 77.894531 96.867188 80.3125 99.285156 80.3125 102.257812 C 80.3125 105.230469 77.894531 107.652344 74.921875 107.652344 Z M 74.921875 100.125 C 73.746094 100.125 72.792969 101.082031 72.792969 102.257812 C 72.792969 103.433594 73.746094 104.390625 74.921875 104.390625 C 76.097656 104.390625 77.054688 103.433594 77.054688 102.257812 C 77.054688 101.082031 76.097656 100.125 74.921875 100.125 Z M 74.921875 100.125 " fill-opacity="1" fill-rule="nonzero"/><path fill="#000000" d="M 90.636719 107.652344 C 87.664062 107.652344 85.246094 105.230469 85.246094 102.257812 C 85.246094 99.285156 87.664062 96.867188 90.636719 96.867188 C 93.605469 96.867188 96.023438 99.285156 96.023438 102.257812 C 96.023438 105.230469 93.605469 107.652344 90.636719 107.652344 Z M 90.636719 100.125 C 89.460938 100.125 88.503906 101.082031 88.503906 102.257812 C 88.503906 103.433594 89.460938 104.390625 90.636719 104.390625 C 91.8125 104.390625 92.765625 103.433594 92.765625 102.257812 C 92.765625 101.082031 91.8125 100.125 90.636719 100.125 Z M 90.636719 100.125 " fill-opacity="1" fill-rule="nonzero"/><g clip-path="url(#a810289a88)"><path fill="#000000" d="M 136.808594 115.8125 L 13.035156 115.8125 C 7.460938 115.8125 2.921875 111.273438 2.921875 105.691406 L 2.921875 17.707031 C 2.921875 12.125 7.457031 7.585938 13.035156 7.585938 L 136.808594 7.585938 C 142.386719 7.585938 146.921875 12.125 146.921875 17.707031 L 146.921875 105.691406 C 146.921875 111.273438 142.386719 115.8125 136.808594 115.8125 Z M 13.035156 10.84375 C 9.257812 10.84375 6.179688 13.921875 6.179688 17.707031 L 6.179688 105.691406 C 6.179688 109.472656 9.257812 112.550781 13.035156 112.550781 L 136.808594 112.550781 C 140.589844 112.550781 143.664062 109.472656 143.664062 105.691406 L 143.664062 17.707031 C 143.664062 13.921875 140.589844 10.84375 136.808594 10.84375 Z M 13.035156 10.84375 " fill-opacity="1" fill-rule="nonzero"/></g><g clip-path="url(#7a72d50889)"><path fill="#000000" d="M 145.292969 91.964844 L 4.550781 91.964844 C 3.652344 91.964844 2.921875 91.234375 2.921875 90.335938 C 2.921875 89.433594 3.652344 88.703125 4.550781 88.703125 L 145.292969 88.703125 C 146.191406 88.703125 146.921875 89.433594 146.921875 90.335938 C 146.921875 91.234375 146.191406 91.964844 145.292969 91.964844 Z M 145.292969 91.964844 " fill-opacity="1" fill-rule="nonzero"/></g><path fill="#000000" d="M 100.949219 130.863281 C 100.050781 130.863281 99.320312 130.132812 99.320312 129.234375 L 99.320312 114.183594 C 99.320312 113.28125 100.050781 112.550781 100.949219 112.550781 C 101.847656 112.550781 102.578125 113.28125 102.578125 114.183594 L 102.578125 129.234375 C 102.578125 130.132812 101.847656 130.863281 100.949219 130.863281 Z M 49.667969 130.863281 C 48.769531 130.863281 48.039062 130.132812 48.039062 129.234375 L 48.039062 114.183594 C 48.039062 113.28125 48.769531 112.550781 49.667969 112.550781 C 50.566406 112.550781 51.296875 113.28125 51.296875 114.183594 L 51.296875 129.234375 C 51.296875 130.132812 50.566406 130.863281 49.667969 130.863281 Z M 49.667969 130.863281 " fill-opacity="1" fill-rule="nonzero"/><g clip-path="url(#8f8e5f806b)"><path fill="#000000" d="M 109.820312 142.441406 L 40.027344 142.441406 C 35.9375 142.441406 32.617188 139.113281 32.617188 135.023438 C 32.617188 130.933594 35.941406 127.605469 40.027344 127.605469 L 109.820312 127.605469 C 113.90625 127.605469 117.230469 130.933594 117.230469 135.023438 C 117.234375 139.113281 113.90625 142.441406 109.820312 142.441406 Z M 40.027344 130.863281 C 37.738281 130.863281 35.875 132.726562 35.875 135.019531 C 35.875 137.3125 37.738281 139.179688 40.027344 139.179688 L 109.820312 139.179688 C 112.109375 139.179688 113.972656 137.3125 113.972656 135.019531 C 113.972656 132.726562 112.109375 130.863281 109.820312 130.863281 Z M 40.027344 130.863281 " fill-opacity="1" fill-rule="nonzero"/></g></svg>